<svg width="23" height="31" viewBox="0 0 23 31" fill="none" xmlns="http://www.w3.org/2000/svg">
<path d="M11.5 0C6.42417 0 2.13041 2.69982 0.563313 6.87794L7.64969 8.87233C8.21 7.37848 9.6842 6.45261 11.5 6.45261V0ZM11.5 11.0924V17.5424C13.7323 17.5424 15.5481 19.114 15.5481 21.0462C15.5481 22.9783 13.7323 24.55 11.5 24.55C9.26771 24.55 7.45193 22.9783 7.45193 21.0462C7.45193 20.6416 7.50586 20.3485 7.64969 19.9647L0.563313 17.9703C0.17978 18.9921 0 19.9699 0 21.0462C0 26.534 5.15971 31 11.5 31C17.8403 31 23 26.534 23 21.0462C23 15.5584 17.8403 11.0924 11.5 11.0924Z" fill="white"/>
</svg>
