<svg width="17" height="17" viewBox="0 0 17 17" fill="none" xmlns="http://www.w3.org/2000/svg">
<g clip-path="url(#clip0_857_3111)">
<path d="M12.7074 12.7077C11.4966 13.6306 10.0222 14.142 8.49992 14.1668C3.54159 14.1668 0.708252 8.50018 0.708252 8.50018C1.58934 6.85819 2.81139 5.42361 4.29242 4.29268M7.01242 3.00351C7.49999 2.88939 7.99917 2.83234 8.49992 2.83351C13.4583 2.83351 16.2916 8.50018 16.2916 8.50018C15.8616 9.30457 15.3488 10.0619 14.7616 10.7598M10.0016 10.0018C9.80704 10.2106 9.57244 10.3781 9.31178 10.4942C9.05111 10.6104 8.76972 10.6728 8.4844 10.6779C8.19907 10.6829 7.91566 10.6304 7.65106 10.5235C7.38646 10.4167 7.1461 10.2576 6.94431 10.0558C6.74252 9.854 6.58345 9.61364 6.47657 9.34904C6.36969 9.08444 6.31721 8.80102 6.32224 8.5157C6.32728 8.23037 6.38973 7.94899 6.50587 7.68832C6.62202 7.42766 6.78947 7.19306 6.99825 6.99851" stroke="white" stroke-width="1.5" stroke-linecap="round" stroke-linejoin="round"/>
<path d="M0.708252 0.708496L16.2916 16.2918" stroke="white" stroke-width="1.5" stroke-linecap="round" stroke-linejoin="round"/>
</g>
<defs>
<clipPath id="clip0_857_3111">
<rect width="17" height="17" fill="white"/>
</clipPath>
</defs>
</svg>
