<svg width="32" height="20" viewBox="0 0 32 20" fill="none" xmlns="http://www.w3.org/2000/svg">
<path fill-rule="evenodd" clip-rule="evenodd" d="M3.52686 0.79541C1.87 0.79541 0.526855 2.13856 0.526855 3.79541V16.3179C0.526855 17.9748 1.87 19.3179 3.52686 19.3179H28.4815C30.1384 19.3179 31.4815 17.9747 31.4815 16.3179V3.79541C31.4815 2.13856 30.1384 0.79541 28.4815 0.79541H3.52686ZM5.45838 6.62519V14.1214H10.257V12.8147H7.04327V6.62519H5.45838ZM12.8914 14.1214V6.62519H11.3065V14.1214H12.8914ZM15.5497 6.62519L17.3615 12.3205H17.4311L19.2465 6.62519H21.0035L18.4193 14.1214H16.3769L13.7891 6.62519H15.5497ZM21.9057 6.62519V14.1214H26.9715V12.8147H23.4906V11.0248H26.697V9.7181H23.4906V7.9319H26.9569V6.62519H21.9057Z" fill="white"/>
</svg>
