<svg width="22" height="22" viewBox="0 0 22 22" fill="none" xmlns="http://www.w3.org/2000/svg">
<path fill-rule="evenodd" clip-rule="evenodd" d="M11 0C11.3806 0 11.7282 0.216072 11.8967 0.557376L14.7543 6.34647L21.1446 7.28051C21.5212 7.33555 21.8339 7.59956 21.9512 7.96157C22.0686 8.32358 21.9703 8.72083 21.6977 8.98636L17.0745 13.4894L18.1656 19.851C18.23 20.2261 18.0757 20.6053 17.7677 20.8291C17.4598 21.0528 17.0515 21.0823 16.7145 20.9051L11 17.8998L5.28545 20.9051C4.94853 21.0823 4.54024 21.0528 4.23226 20.8291C3.92429 20.6053 3.77004 20.2261 3.83439 19.851L4.92548 13.4894L0.302266 8.98636C0.0296477 8.72083 -0.0686251 8.32358 0.0487526 7.96157C0.16613 7.59956 0.47881 7.33555 0.85537 7.28051L7.24574 6.34647L10.1033 0.557376C10.2718 0.216072 10.6194 0 11 0ZM11 3.25925L8.80671 7.70262C8.66117 7.99747 8.37998 8.20193 8.05463 8.24949L3.14841 8.9666L6.69773 12.4236C6.93361 12.6534 7.04127 12.9845 6.98561 13.309L6.14818 18.1917L10.5345 15.8849C10.8259 15.7317 11.1741 15.7317 11.4655 15.8849L15.8518 18.1917L15.0144 13.309C14.9587 12.9845 15.0664 12.6534 15.3023 12.4236L18.8516 8.9666L13.9454 8.24949C13.62 8.20193 13.3388 7.99747 13.1933 7.70262L11 3.25925Z" fill="white"/>
</svg>
