<svg width="34" height="30" viewBox="0 0 34 30" fill="none" xmlns="http://www.w3.org/2000/svg">
<path fill-rule="evenodd" clip-rule="evenodd" d="M23.9287 0.8396C22.7335 0.8396 21.55 1.07509 20.4458 1.53261C19.3417 1.9901 18.3383 2.66084 17.4934 3.50609L16.9997 3.99984L16.5057 3.50585C14.799 1.79916 12.4842 0.840348 10.0706 0.840348C7.65694 0.840348 5.34217 1.79916 3.63548 3.50585C1.92878 5.21255 0.969971 7.52732 0.969971 9.94095C0.969971 12.3546 1.92878 14.6694 3.63548 16.376L16.0098 28.7504C16.5565 29.2971 17.4428 29.2971 17.9895 28.7504L30.3638 16.376C31.2091 15.5311 31.8796 14.528 32.3371 13.4239C32.7946 12.3197 33.0301 11.1362 33.0301 9.94095C33.0301 8.74572 32.7946 7.5622 32.3371 6.45801C31.8796 5.35401 31.2087 4.35048 30.3636 3.50562C29.5187 2.66049 28.5157 1.99005 27.4117 1.53261C26.3075 1.07509 25.124 0.8396 23.9287 0.8396ZM21.5175 4.11901C22.2819 3.80226 23.1013 3.63923 23.9287 3.63923C24.7562 3.63923 25.5756 3.80226 26.34 4.11901C27.1045 4.43576 27.7995 4.90048 28.3844 5.48572C28.9697 6.07069 29.4339 6.76524 29.7507 7.52968C30.0674 8.29413 30.2305 9.11349 30.2305 9.94095C30.2305 10.7684 30.0674 11.5878 29.7507 12.3522C29.4339 13.1167 28.9694 13.8114 28.3842 14.3964L16.9997 25.781L5.61511 14.3964C4.43345 13.2148 3.7696 11.6121 3.7696 9.94095C3.7696 8.26983 4.43345 6.66715 5.61511 5.48549C6.79677 4.30383 8.39945 3.63998 10.0706 3.63998C11.7417 3.63998 13.3444 4.30383 14.526 5.48549L15.1631 6.12259L12.3962 9.93149C12.0395 10.4225 12.0483 11.0675 12.3711 11.5419C12.4874 11.7704 12.6679 11.9697 12.9048 12.1101L16.776 14.4031L15.8106 15.8589C15.3834 16.5032 15.5593 17.3719 16.2036 17.7991C16.848 18.2264 17.7166 18.0504 18.1439 17.4061L19.7875 14.9274C19.8522 14.8297 19.9031 14.727 19.9406 14.6214C20.3172 13.9594 20.0949 13.1151 19.437 12.7254L15.5147 10.4021L17.9116 7.10261C17.9472 7.05358 17.9792 7.00302 18.0075 6.95124L19.4735 5.48526C20.0585 4.90001 20.753 4.43576 21.5175 4.11901Z" fill="white"/>
</svg>
