<svg width="12" height="13" viewBox="0 0 12 13" fill="none" xmlns="http://www.w3.org/2000/svg">
<path d="M6.00292 12.3351C2.78117 12.3351 0.169586 9.7235 0.169586 6.50175C0.169586 3.27999 2.78117 0.668411 6.00292 0.668411C9.22467 0.668411 11.8363 3.27999 11.8363 6.50175C11.8363 9.7235 9.22467 12.3351 6.00292 12.3351ZM6.00292 11.1684C7.2406 11.1684 8.42758 10.6767 9.30275 9.80158C10.1779 8.92641 10.6696 7.73942 10.6696 6.50175C10.6696 5.26407 10.1779 4.07708 9.30275 3.20191C8.42758 2.32674 7.2406 1.83508 6.00292 1.83508C4.76524 1.83508 3.57826 2.32674 2.70309 3.20191C1.82792 4.07708 1.33625 5.26407 1.33625 6.50175C1.33625 7.73942 1.82792 8.92641 2.70309 9.80158C3.57826 10.6767 4.76524 11.1684 6.00292 11.1684ZM6.00292 3.61424L8.89042 6.50175L6.00292 9.38924L3.11542 6.50175L6.00292 3.61424ZM6.00292 5.26449L4.76567 6.50116L6.00234 7.73899L7.24017 6.50175L6.00292 5.26449Z" fill="white"/>
</svg>
