<svg width="29" height="29" viewBox="0 0 29 29" fill="none" xmlns="http://www.w3.org/2000/svg">
<path fill-rule="evenodd" clip-rule="evenodd" d="M14.2573 0C11.1787 0 8.76667 8.9407e-08 6.884 0.253333C4.95867 0.512 3.43867 1.05333 2.24533 2.24533C1.052 3.43867 0.512 4.95867 0.253333 6.88533C8.9407e-08 8.76667 0 11.1787 0 14.2573V14.4093C0 17.488 8.9407e-08 19.9 0.253333 21.7827C0.512 23.708 1.05333 25.228 2.24533 26.4213C3.43867 27.6147 4.95867 28.1547 6.88533 28.4133C8.76667 28.6667 11.1787 28.6667 14.2573 28.6667H14.4093C17.488 28.6667 19.9 28.6667 21.7827 28.4133C23.708 28.1547 25.228 27.6133 26.4213 26.4213C27.6147 25.228 28.1547 23.708 28.4133 21.7813C28.6667 19.9 28.6667 17.488 28.6667 14.4093V14.2573C28.6667 11.1787 28.6667 8.76667 28.4133 6.884C28.1547 4.95867 27.6133 3.43867 26.4213 2.24533C25.228 1.052 23.708 0.512 21.7813 0.253333C19.9 8.9407e-08 17.488 0 14.4093 0H14.2573ZM13.3333 2C10.6747 2.00267 8.69733 2.02667 7.152 2.23467C5.44667 2.464 4.41867 2.90133 3.65867 3.66C2.9 4.42 2.464 5.44667 2.23467 7.152C2.028 8.69733 2.00267 10.6747 2 13.3333H7.552C7.07321 12.7352 6.72936 12.0407 6.544 11.2973C5.82533 8.42667 8.42667 5.82533 11.2973 6.544C12.0407 6.72944 12.7352 7.07328 13.3333 7.552V2ZM2 15.3333C2.00267 17.992 2.02667 19.9693 2.23467 21.5147C2.464 23.22 2.90133 24.248 3.66 25.008C4.42 25.7667 5.44667 26.2027 7.152 26.432C8.69733 26.6387 10.6747 26.664 13.3333 26.6667V17.1653C12.8072 18.2177 11.9984 19.1027 10.9975 19.7212C9.99659 20.3396 8.84321 20.667 7.66667 20.6667C7.40145 20.6667 7.1471 20.5613 6.95956 20.3738C6.77202 20.1862 6.66667 19.9319 6.66667 19.6667C6.66667 19.4015 6.77202 19.1471 6.95956 18.9596C7.1471 18.772 7.40145 18.6667 7.66667 18.6667C8.64216 18.6666 9.58914 18.3376 10.3544 17.7327C11.1198 17.1278 11.6587 16.2824 11.884 15.3333H2ZM15.3333 26.6667C17.992 26.664 19.9693 26.64 21.5147 26.432C23.22 26.2027 24.248 25.7653 25.008 25.0067C25.7667 24.2467 26.2027 23.22 26.432 21.5147C26.6387 19.9693 26.664 17.992 26.6667 15.3333H16.7827C17.008 16.2824 17.5469 17.1278 18.3122 17.7327C19.0775 18.3376 20.0245 18.6666 21 18.6667C21.2652 18.6667 21.5196 18.772 21.7071 18.9596C21.8946 19.1471 22 19.4015 22 19.6667C22 19.9319 21.8946 20.1862 21.7071 20.3738C21.5196 20.5613 21.2652 20.6667 21 20.6667C19.8235 20.667 18.6701 20.3396 17.6692 19.7212C16.6683 19.1027 15.8594 18.2177 15.3333 17.1653V26.6667ZM26.6667 13.3333H21.1147C21.5938 12.7353 21.9381 12.0408 22.124 11.2973C22.8413 8.42667 20.24 5.82533 17.3693 6.544C16.626 6.72936 15.9314 7.07321 15.3333 7.552V2C17.992 2.00267 19.9693 2.02667 21.5147 2.23467C23.22 2.464 24.248 2.90133 25.008 3.66C25.7667 4.42 26.2027 5.44667 26.432 7.152C26.6387 8.69733 26.664 10.6747 26.6667 13.3333ZM15.3333 13.3333V11.7067C15.3349 10.9655 15.5838 10.246 16.0405 9.66229C16.4972 9.07854 17.1356 8.66388 17.8547 8.484C18.1763 8.40368 18.5132 8.408 18.8326 8.49652C19.1521 8.58504 19.4431 8.75475 19.6775 8.98914C19.9119 9.22353 20.0816 9.51461 20.1701 9.83405C20.2587 10.1535 20.263 10.4904 20.1827 10.812C20.0029 11.5306 19.5886 12.1687 19.0054 12.6254C18.4222 13.082 17.7034 13.3312 16.9627 13.3333H15.3333ZM13.3333 11.7027C13.3309 10.9622 13.0816 10.2436 12.6249 9.66071C12.1683 9.07777 11.5304 8.66371 10.812 8.484C10.4904 8.40368 10.1535 8.408 9.83405 8.49652C9.51461 8.58504 9.22353 8.75475 8.98914 8.98914C8.75475 9.22353 8.58504 9.51461 8.49652 9.83405C8.408 10.1535 8.40368 10.4904 8.484 10.812C8.66376 11.5306 9.07803 12.1687 9.66123 12.6254C10.2444 13.082 10.9633 13.3312 11.704 13.3333H13.3333V11.7027Z" fill="white"/>
</svg>
