<svg width="20" height="18" viewBox="0 0 20 18" fill="none" xmlns="http://www.w3.org/2000/svg">
<path fill-rule="evenodd" clip-rule="evenodd" d="M14.125 0C13.3916 0 12.6653 0.144504 11.9877 0.425257C11.3102 0.70598 10.6945 1.11759 10.1761 1.63625L10 1.81231L9.82377 1.63608C8.77649 0.588802 7.35607 0.000445604 5.875 0.000445664C4.39392 0.000445664 2.9735 0.588802 1.92622 1.63608C0.878944 2.68336 0.290588 4.10378 0.290588 5.58485C0.290588 7.06593 0.878944 8.48635 1.92622 9.53363L9.29289 16.9003C9.68342 17.2908 10.3166 17.2908 10.7071 16.9003L18.0738 9.53363C18.5924 9.01517 19.0039 8.39961 19.2846 7.72211C19.5653 7.04454 19.7099 6.31829 19.7099 5.58485C19.7099 4.85142 19.5653 4.12517 19.2846 3.4476C19.0039 2.77017 18.5922 2.15434 18.0736 1.63592C17.5552 1.11733 16.9397 0.705949 16.2623 0.425257C15.5847 0.144504 14.8584 0 14.125 0Z" fill="white"/>
</svg>
