<svg width="24" height="25" viewBox="0 0 24 25" fill="none" xmlns="http://www.w3.org/2000/svg">
<path fill-rule="evenodd" clip-rule="evenodd" d="M23.4576 6.61084C23.7907 6.78224 24 7.12542 24 7.5V17.5C24 17.8746 23.7907 18.2178 23.4576 18.3892C23.1245 18.5606 22.7236 18.5315 22.4188 18.3137L15.4188 13.3137C15.156 13.126 15 12.823 15 12.5C15 12.1771 15.156 11.874 15.4188 11.6863L22.4188 6.68627C22.7236 6.46855 23.1245 6.43943 23.4576 6.61084ZM17.7205 12.5L22 15.5568V9.44319L17.7205 12.5Z" fill="white"/>
<path fill-rule="evenodd" clip-rule="evenodd" d="M3 6.5C2.44772 6.5 2 6.94772 2 7.5V17.5C2 18.0523 2.44772 18.5 3 18.5H14C14.5523 18.5 15 18.0523 15 17.5V7.5C15 6.94772 14.5523 6.5 14 6.5H3ZM0 7.5C0 5.84315 1.34315 4.5 3 4.5H14C15.6569 4.5 17 5.84315 17 7.5V17.5C17 19.1569 15.6569 20.5 14 20.5H3C1.34315 20.5 0 19.1569 0 17.5V7.5Z" fill="white"/>
</svg>
