<svg width="20" height="19" viewBox="0 0 20 19" fill="none" xmlns="http://www.w3.org/2000/svg">
<path fill-rule="evenodd" clip-rule="evenodd" d="M19.0092 0.227694C19.2148 0.410246 19.3333 0.678367 19.3333 0.960791V12.8243C19.3333 12.8273 19.3333 12.8303 19.3333 12.8333C19.3333 12.8364 19.3333 12.8394 19.3333 12.8424V13.451C19.3333 13.6966 19.2454 13.9206 19.1008 14.0905C18.5957 15.4024 17.3232 16.3333 15.8333 16.3333C13.9003 16.3333 12.3333 14.7663 12.3333 12.8333C12.3333 10.9003 13.9003 9.33334 15.8333 9.33334C16.4367 9.33334 17.0045 9.48602 17.5 9.75487V2.09496L8.33333 3.69627V15.3726C8.33333 15.8851 7.95039 16.3039 7.46802 16.3319C6.98797 17.692 5.69114 18.6667 4.16666 18.6667C2.23366 18.6667 0.666656 17.0997 0.666656 15.1667C0.666656 13.2337 2.23366 11.6667 4.16666 11.6667C5.06308 11.6667 5.88078 12.0037 6.5 12.5579V2.88236C6.5 2.41269 6.82396 2.01186 7.26597 1.93465L18.266 0.01308C18.5318 -0.0333502 18.8036 0.0451419 19.0092 0.227694ZM17.5 12.2982C17.2739 11.5934 16.6132 11.0833 15.8333 11.0833C14.8668 11.0833 14.0833 11.8668 14.0833 12.8333C14.0833 13.7998 14.8668 14.5833 15.8333 14.5833C16.6132 14.5833 17.2739 14.0732 17.5 13.3685V12.2982ZM4.16666 13.4167C3.20016 13.4167 2.41666 14.2002 2.41666 15.1667C2.41666 16.1332 3.20016 16.9167 4.16666 16.9167C5.13315 16.9167 5.91666 16.1332 5.91666 15.1667C5.91666 14.2002 5.13315 13.4167 4.16666 13.4167Z" fill="white"/>
</svg>
