<svg width="40" height="41" viewBox="0 0 40 41" fill="none" xmlns="http://www.w3.org/2000/svg">
<path fill-rule="evenodd" clip-rule="evenodd" d="M14.3939 3.10508C14.7955 4.02539 14.3751 5.09701 13.4547 5.49862C11.005 6.56765 8.85442 8.2205 7.19103 10.3127C5.52765 12.4049 4.40209 14.8727 3.91278 17.5003C3.42346 20.128 3.58528 22.8355 4.38409 25.3862C5.1829 27.9369 6.59438 30.2531 8.49513 32.1322C10.3959 34.0114 12.728 35.3963 15.2876 36.166C17.8473 36.9356 20.5565 37.0665 23.1784 36.5472C25.8003 36.0279 28.2551 34.8742 30.3281 33.1871C32.4012 31.4999 34.0294 29.3306 35.0704 26.8688C35.4614 25.944 36.5282 25.5113 37.453 25.9023C38.3779 26.2934 38.8106 27.3602 38.4195 28.285C37.1472 31.2938 35.1572 33.9452 32.6234 36.0073C30.0897 38.0694 27.0894 39.4795 23.8849 40.1141C20.6803 40.7488 17.3691 40.5889 14.2406 39.6482C11.1122 38.7075 8.26177 37.0148 5.93864 34.7181C3.61551 32.4213 1.89037 29.5905 0.914045 26.4729C-0.0622795 23.3554 -0.260062 20.0462 0.33799 16.8346C0.936042 13.6231 2.31172 10.6069 4.34475 8.04974C6.37778 5.49263 9.00626 3.47248 12.0004 2.16589C12.9207 1.76428 13.9923 2.18477 14.3939 3.10508Z" fill="white"/>
<path fill-rule="evenodd" clip-rule="evenodd" d="M18.7146 1.0374C19.0556 0.696434 19.5181 0.504883 20.0002 0.504883C22.6266 0.504883 25.2272 1.02218 27.6537 2.02724C30.0801 3.0323 32.2848 4.50544 34.1419 6.36255C35.999 8.21965 37.4721 10.4244 38.4772 12.8508C39.4823 15.2772 39.9996 17.8778 39.9996 20.5042C39.9996 21.5083 39.1856 22.3223 38.1814 22.3223H20.0002C18.9961 22.3223 18.1821 21.5083 18.1821 20.5042V2.323C18.1821 1.84081 18.3737 1.37836 18.7146 1.0374ZM21.8184 4.24244V18.6861H36.262C36.0915 17.1614 35.7072 15.6653 35.1178 14.2423C34.2954 12.2571 33.0901 10.4532 31.5707 8.93375C30.0512 7.4143 28.2474 6.20901 26.2621 5.38669C24.8392 4.79728 23.343 4.4129 21.8184 4.24244Z" fill="white"/>
</svg>
