<svg width="19" height="19" viewBox="0 0 19 19" fill="none" xmlns="http://www.w3.org/2000/svg">
<path fill-rule="evenodd" clip-rule="evenodd" d="M18.747 0.252991C19.0843 0.590261 19.0843 1.13708 18.747 1.47435L9.24702 10.9743C8.90975 11.3116 8.36293 11.3116 8.02566 10.9743C7.68839 10.6371 7.68839 10.0902 8.02566 9.75297L17.5256 0.252991C17.8629 -0.0842794 18.4097 -0.0842794 18.747 0.252991Z" fill="white"/>
<path fill-rule="evenodd" clip-rule="evenodd" d="M18.747 0.252977C18.9816 0.487573 19.0611 0.835818 18.9515 1.14896L12.906 18.4216C12.7891 18.7559 12.4799 18.9848 12.1261 18.9993C11.7723 19.0137 11.4455 18.8107 11.3017 18.4871L7.98205 11.0179L0.512884 7.6983C0.189297 7.55448 -0.0137124 7.22771 0.000722244 6.87389C0.0151569 6.52008 0.24411 6.21093 0.578337 6.09395L17.851 0.0485099C18.1642 -0.06109 18.5124 0.0183809 18.747 0.252977ZM3.20502 7.00462L8.9871 9.57444C9.18248 9.66127 9.33871 9.8175 9.42555 10.0129L11.9954 15.795L16.7286 2.27136L3.20502 7.00462Z" fill="white"/>
</svg>
