<svg width="16" height="24" viewBox="0 0 16 24" fill="none" xmlns="http://www.w3.org/2000/svg">
<path fill-rule="evenodd" clip-rule="evenodd" d="M5.17157 1.17157C5.92172 0.421427 6.93913 0 8 0C9.06087 0 10.0783 0.421427 10.8284 1.17157C11.5786 1.92172 12 2.93913 12 4V12C12 13.0609 11.5786 14.0783 10.8284 14.8284C10.0783 15.5786 9.06087 16 8 16C6.93913 16 5.92172 15.5786 5.17157 14.8284C4.42143 14.0783 4 13.0609 4 12V4C4 2.93913 4.42143 1.92172 5.17157 1.17157ZM8 2C7.46957 2 6.96086 2.21071 6.58579 2.58579C6.21071 2.96086 6 3.46957 6 4V12C6 12.5304 6.21071 13.0391 6.58579 13.4142C6.96086 13.7893 7.46957 14 8 14C8.53043 14 9.03914 13.7893 9.41421 13.4142C9.78929 13.0391 10 12.5304 10 12V4C10 3.46957 9.78929 2.96086 9.41421 2.58579C9.03914 2.21071 8.53043 2 8 2Z" fill="white"/>
<path fill-rule="evenodd" clip-rule="evenodd" d="M1 9C1.55228 9 2 9.44772 2 10V12C2 13.5913 2.63214 15.1174 3.75736 16.2426C4.88258 17.3679 6.4087 18 8 18C9.5913 18 11.1174 17.3679 12.2426 16.2426C13.3679 15.1174 14 13.5913 14 12V10C14 9.44772 14.4477 9 15 9C15.5523 9 16 9.44772 16 10V12C16 14.1217 15.1571 16.1566 13.6569 17.6569C12.1566 19.1571 10.1217 20 8 20C5.87827 20 3.84344 19.1571 2.34315 17.6569C0.842855 16.1566 5.96046e-08 14.1217 0 12V10C0 9.44772 0.447715 9 1 9Z" fill="white"/>
<path fill-rule="evenodd" clip-rule="evenodd" d="M8 18C8.55228 18 9 18.4477 9 19V23C9 23.5523 8.55228 24 8 24C7.44772 24 7 23.5523 7 23V19C7 18.4477 7.44772 18 8 18Z" fill="white"/>
<path fill-rule="evenodd" clip-rule="evenodd" d="M3 23C3 22.4477 3.44772 22 4 22H12C12.5523 22 13 22.4477 13 23C13 23.5523 12.5523 24 12 24H4C3.44772 24 3 23.5523 3 23Z" fill="white"/>
</svg>
