<svg width="10" height="12" viewBox="0 0 10 12" fill="none" xmlns="http://www.w3.org/2000/svg">
<path fill-rule="evenodd" clip-rule="evenodd" d="M1.6 0.900012C1.69443 0.774109 1.84262 0.700012 2 0.700012H8C8.15738 0.700012 8.30557 0.774109 8.4 0.900012L9.89703 2.89605C9.96161 2.98028 10 3.08567 10 3.20001V10.2C10 10.5978 9.84196 10.9794 9.56066 11.2607C9.27936 11.542 8.89783 11.7 8.5 11.7H1.5C1.10217 11.7 0.720644 11.542 0.43934 11.2607C0.158035 10.9794 0 10.5978 0 10.2V3.20001C0 3.08567 0.0383798 2.9803 0.102959 2.89607L1.6 0.900012ZM7.75 1.70001L8.5 2.70001H1.5L2.25 1.70001H7.75ZM1 3.70001H9V10.2C9 10.3326 8.94732 10.4598 8.85355 10.5536C8.75978 10.6473 8.63261 10.7 8.5 10.7H1.5C1.36739 10.7 1.24021 10.6473 1.14645 10.5536C1.05268 10.4598 1 10.3326 1 10.2V3.70001ZM3.5 5.20002C3.5 4.92387 3.27614 4.70002 3 4.70002C2.72386 4.70002 2.5 4.92387 2.5 5.20002C2.5 5.86306 2.76339 6.49894 3.23223 6.96778C3.70107 7.43662 4.33696 7.70002 5 7.70002C5.66304 7.70002 6.29893 7.43662 6.76777 6.96778C7.23661 6.49894 7.5 5.86306 7.5 5.20002C7.5 4.92387 7.27614 4.70002 7 4.70002C6.72386 4.70002 6.5 4.92387 6.5 5.20002C6.5 5.59784 6.34196 5.97937 6.06066 6.26068C5.77936 6.54198 5.39782 6.70002 5 6.70002C4.60218 6.70002 4.22064 6.54198 3.93934 6.26068C3.65804 5.97937 3.5 5.59784 3.5 5.20002Z" fill="white"/>
</svg>
