<svg width="20" height="18" viewBox="0 0 20 18" fill="none" xmlns="http://www.w3.org/2000/svg">
<path fill-rule="evenodd" clip-rule="evenodd" d="M11.9877 0.425257C12.6653 0.144504 13.3916 0 14.125 0C14.8584 0 15.5847 0.144504 16.2623 0.425257C16.9397 0.705949 17.5552 1.11733 18.0736 1.63592C18.5922 2.15434 19.0039 2.77017 19.2846 3.4476C19.5653 4.12517 19.7099 4.85142 19.7099 5.58485C19.7099 6.31829 19.5653 7.04454 19.2846 7.72211C19.0039 8.39961 18.5924 9.01517 18.0738 9.53363C18.0737 9.53368 18.0738 9.53357 18.0738 9.53363L10.7071 16.9003C10.3166 17.2908 9.68342 17.2908 9.29289 16.9003L1.92622 9.53363C0.878944 8.48635 0.290588 7.06593 0.290588 5.58485C0.290588 4.10378 0.878944 2.68336 1.92622 1.63608C2.9735 0.588802 4.39392 0.000445664 5.875 0.000445664C7.35608 0.000445604 8.77649 0.588802 9.82377 1.63608L10 1.81231L10.1761 1.63625C10.1761 1.63619 10.176 1.6363 10.1761 1.63625C10.6945 1.11759 11.3102 0.70598 11.9877 0.425257ZM14.125 2C13.6543 2 13.1882 2.09274 12.7533 2.27293C12.3185 2.45311 11.9234 2.71721 11.5906 3.05013L10.7071 3.93363C10.3166 4.32415 9.68342 4.32415 9.29289 3.93363L8.40956 3.05029C7.73735 2.37809 6.82564 2.00045 5.875 2.00045C4.92435 2.00045 4.01264 2.37809 3.34044 3.05029C2.66823 3.7225 2.29059 4.63421 2.29059 5.58485C2.29059 6.5355 2.66823 7.44721 3.34044 8.11942L10 14.779L16.6596 8.11942C16.9925 7.78665 17.2567 7.39139 17.4369 6.95653C17.6171 6.52166 17.7099 6.05556 17.7099 5.58485C17.7099 5.11414 17.6171 4.64804 17.4369 4.21318C17.2567 3.77832 16.9926 3.38323 16.6597 3.05046C16.327 2.71754 15.9315 2.45311 15.4967 2.27293C15.0618 2.09274 14.5957 2 14.125 2Z" fill="white"/>
</svg>
