<svg width="34" height="34" viewBox="0 0 34 34" fill="none" xmlns="http://www.w3.org/2000/svg">
<path fill-rule="evenodd" clip-rule="evenodd" d="M10.1332 1.83156C10.3989 1.56588 10.7592 1.41663 11.135 1.41663H22.865C23.2407 1.41663 23.601 1.56588 23.8667 1.83156L32.1684 10.1332C32.434 10.3989 32.5833 10.7592 32.5833 11.135V22.865C32.5833 23.2407 32.434 23.601 32.1684 23.8667L23.8667 32.1684C23.601 32.434 23.2407 32.5833 22.865 32.5833H11.135C10.7592 32.5833 10.3989 32.434 10.1332 32.1684L1.83156 23.8667C1.56588 23.601 1.41663 23.2407 1.41663 22.865V11.135C1.41663 10.7592 1.56588 10.3989 1.83156 10.1332L10.1332 1.83156ZM11.7218 4.24996L4.24996 11.7218V22.2782L11.7218 29.75H22.2782L29.75 22.2782V11.7218L22.2782 4.24996H11.7218Z" fill="white"/>
<path fill-rule="evenodd" clip-rule="evenodd" d="M17 9.91663C17.7824 9.91663 18.4167 10.5509 18.4167 11.3333V17C18.4167 17.7824 17.7824 18.4166 17 18.4166C16.2176 18.4166 15.5834 17.7824 15.5834 17V11.3333C15.5834 10.5509 16.2176 9.91663 17 9.91663Z" fill="white"/>
<path fill-rule="evenodd" clip-rule="evenodd" d="M15.5834 22.6667C15.5834 21.8843 16.2176 21.25 17 21.25H17.0142C17.7966 21.25 18.4309 21.8843 18.4309 22.6667C18.4309 23.4491 17.7966 24.0833 17.0142 24.0833H17C16.2176 24.0833 15.5834 23.4491 15.5834 22.6667Z" fill="white"/>
</svg>
