<svg width="30" height="20" viewBox="0 0 30 20" fill="none" xmlns="http://www.w3.org/2000/svg">
<path fill-rule="evenodd" clip-rule="evenodd" d="M2.5 3.75C2.5 3.05964 3.05964 2.5 3.75 2.5H17.5C18.1904 2.5 18.75 3.05964 18.75 3.75V10V16.25C18.75 16.9404 18.1904 17.5 17.5 17.5H3.75C3.05964 17.5 2.5 16.9404 2.5 16.25V3.75ZM21.25 7.57101V3.75C21.25 1.67893 19.5711 0 17.5 0H3.75C1.67893 0 0 1.67893 0 3.75V16.25C0 18.3211 1.67893 20 3.75 20H17.5C19.5711 20 21.25 18.3211 21.25 16.25V12.429L28.0235 17.2672C28.4045 17.5393 28.9056 17.5757 29.322 17.3615C29.7383 17.1472 30 16.7182 30 16.25V3.75C30 3.28177 29.7383 2.8528 29.322 2.63854C28.9056 2.42428 28.4045 2.46068 28.0235 2.73283L21.25 7.57101ZM27.5 13.821L22.1506 10L27.5 6.17899V13.821Z" fill="white"/>
</svg>
